<svg xmlns="http://www.w3.org/2000/svg" viewBox="0 0 184.25 31.76"><defs><style>.cls-1{fill:#231f20;}.cls-2{fill:#0075a2;}.cls-3{fill:#d8d9da;}</style></defs><g id="Vestland_fylkeskommune" data-name="Vestland fylkeskommune"><path class="cls-1" d="M39.12,26.8h-.91L35,17.51h1.13l2.58,7.8h0l2.95-7.8h1Z" transform="translate(-1.85 -1.86)"/><path class="cls-1" d="M43.75,23.79a2.38,2.38,0,0,0,2.31,2.4,2.09,2.09,0,0,0,2.06-1.12l.64.41A3,3,0,0,1,46.13,27a3.17,3.17,0,0,1-3.28-3.44A3.23,3.23,0,0,1,46,20.16a3,3,0,0,1,2.88,3,4.59,4.59,0,0,1,0,.6ZM46,20.93A2.24,2.24,0,0,0,43.78,23H48A2.12,2.12,0,0,0,46,20.93Z" transform="translate(-1.85 -1.86)"/><path class="cls-1" d="M53.81,21.4a2.16,2.16,0,0,0-1.31-.47c-.5,0-1.14.28-1.14.89,0,.77.83,1,1.66,1.37s1.58.78,1.58,1.94S53.4,27,52.31,27a2.68,2.68,0,0,1-2-.88l.54-.57a2,2,0,0,0,1.49.68c.62,0,1.36-.33,1.36-1.08s-.7-1-1.43-1.3-1.76-.73-1.76-1.91a1.82,1.82,0,0,1,2-1.74,2.73,2.73,0,0,1,1.78.63Z" transform="translate(-1.85 -1.86)"/><path class="cls-1" d="M57.7,21.14v3.58c0,1.16.4,1.38,1,1.38a2.38,2.38,0,0,0,.8-.18l.22.72a2.16,2.16,0,0,1-1,.28c-1.26,0-1.89-.76-1.89-2.1V21.14h-.91v-.82h.91V18.7h.9v1.62h1.89v.82Z" transform="translate(-1.85 -1.86)"/><path class="cls-1" d="M62.32,26.8h-.9v-10h.9Z" transform="translate(-1.85 -1.86)"/><path class="cls-1" d="M68.69,26a2.77,2.77,0,0,1-2.12.92A2,2,0,0,1,64.32,25c0-1.59,1.49-2.21,2.87-2.21a5.64,5.64,0,0,1,1.47.2v-.36A1.48,1.48,0,0,0,67,21a4.83,4.83,0,0,0-2.11.56l-.3-.81A6.49,6.49,0,0,1,67,20.16c1.93,0,2.53,1,2.53,2.68v4h-.81Zm-1.54-2.48c-.89,0-1.92.36-1.92,1.37a1.29,1.29,0,0,0,1.36,1.29,3.09,3.09,0,0,0,2.07-1v-1.5A6,6,0,0,0,67.15,23.56Z" transform="translate(-1.85 -1.86)"/><path class="cls-1" d="M72.86,20.32v1.14a2.56,2.56,0,0,1,2.31-1.3c1.84,0,2.44,1.18,2.44,3.14v3.5h-.9V23.44c0-1.22-.23-2.46-1.67-2.46a2.55,2.55,0,0,0-2.18,1.52v4.3H72V20.32Z" transform="translate(-1.85 -1.86)"/><path class="cls-1" d="M84.81,26a2.62,2.62,0,0,1-2.09,1,3.32,3.32,0,0,1-3.32-3.37,3.38,3.38,0,0,1,3.34-3.43,3.11,3.11,0,0,1,2.07.8V16.84h.9v10h-.9Zm0-3.95a2.73,2.73,0,0,0-2.06-1,2.46,2.46,0,0,0-2.42,2.55,2.49,2.49,0,0,0,2.42,2.61,2.36,2.36,0,0,0,2.06-1.23Z" transform="translate(-1.85 -1.86)"/><path class="cls-1" d="M94.79,17.67a2,2,0,0,0-.81-.16,1.37,1.37,0,0,0-.82.22c-.36.28-.41.81-.41,1.53v1.06h1.61l.28.82H92.75V26.8h-.91V21.14h-.75v-.82h.75V19.18a3.1,3.1,0,0,1,.42-1.74,1.76,1.76,0,0,1,1.59-.76,4,4,0,0,1,1.17.24Z" transform="translate(-1.85 -1.86)"/><path class="cls-1" d="M96.38,20.32l1.83,5.48,2-5.48h1l-3.52,9.44-.77-.31.87-2.33-2.31-6.8Z" transform="translate(-1.85 -1.86)"/><path class="cls-1" d="M103.57,26.8h-.9v-10h.9Z" transform="translate(-1.85 -1.86)"/><path class="cls-1" d="M108.78,22.92l2.52,3.88h-1.1l-2-3.15L107,25.07V26.8h-.91v-10H107v7h0l2.92-3.53H111Z" transform="translate(-1.85 -1.86)"/><path class="cls-1" d="M113,23.79a2.38,2.38,0,0,0,2.31,2.4,2.09,2.09,0,0,0,2.06-1.12l.63.41A3,3,0,0,1,115.36,27a3.17,3.17,0,0,1-3.28-3.44,3.22,3.22,0,0,1,3.17-3.36,3,3,0,0,1,2.88,3c0,.21,0,.48,0,.6Zm2.27-2.86A2.24,2.24,0,0,0,113,23h4.23A2.12,2.12,0,0,0,115.25,20.93Z" transform="translate(-1.85 -1.86)"/><path class="cls-1" d="M123,21.4a2.18,2.18,0,0,0-1.31-.47c-.51,0-1.14.28-1.14.89,0,.77.83,1,1.66,1.37s1.58.78,1.58,1.94S122.63,27,121.54,27a2.68,2.68,0,0,1-2-.88l.54-.57a2,2,0,0,0,1.49.68c.62,0,1.35-.33,1.35-1.08s-.69-1-1.42-1.3-1.76-.73-1.76-1.91a1.82,1.82,0,0,1,2-1.74,2.68,2.68,0,0,1,1.77.63Z" transform="translate(-1.85 -1.86)"/><path class="cls-1" d="M128.41,22.92l2.52,3.88h-1.1l-2-3.15-1.21,1.42V26.8h-.9v-10h.9v7h0l2.92-3.53h1.08Z" transform="translate(-1.85 -1.86)"/><path class="cls-1" d="M138.24,23.56a3.27,3.27,0,1,1-6.53,0,3.27,3.27,0,1,1,6.53,0ZM135,21a2.41,2.41,0,0,0-2.34,2.58,2.35,2.35,0,1,0,4.67,0A2.41,2.41,0,0,0,135,21Z" transform="translate(-1.85 -1.86)"/><path class="cls-1" d="M141,20.32v1.14a2.5,2.5,0,0,1,2.16-1.3,2,2,0,0,1,2.05,1.34,2.71,2.71,0,0,1,2.28-1.34c1.73,0,2.43,1.1,2.43,3.14v3.5h-.9V23.44c0-1.23-.28-2.46-1.57-2.46a2.5,2.5,0,0,0-2,1.36,6.87,6.87,0,0,1,.05.93V26.8h-.9V23.44c0-1.22-.23-2.46-1.53-2.46a2.53,2.53,0,0,0-2,1.52v4.3h-.9V20.32Z" transform="translate(-1.85 -1.86)"/><path class="cls-1" d="M153.24,20.32v1.14a2.52,2.52,0,0,1,2.17-1.3,2,2,0,0,1,2,1.34,2.73,2.73,0,0,1,2.29-1.34c1.72,0,2.43,1.1,2.43,3.14v3.5h-.91V23.44c0-1.23-.28-2.46-1.56-2.46a2.51,2.51,0,0,0-2,1.36,6.81,6.81,0,0,1,.06.93V26.8h-.91V23.44c0-1.22-.22-2.46-1.52-2.46a2.55,2.55,0,0,0-2,1.52v4.3h-.9V20.32Z" transform="translate(-1.85 -1.86)"/><path class="cls-1" d="M169.22,26.8V25.66a2.57,2.57,0,0,1-2.31,1.3c-1.85,0-2.45-1.18-2.45-3.13V20.32h.91v3.36c0,1.22.22,2.46,1.67,2.46a2.56,2.56,0,0,0,2.18-1.52v-4.3h.9V26.8Z" transform="translate(-1.85 -1.86)"/><path class="cls-1" d="M173.5,20.32v1.14a2.57,2.57,0,0,1,2.31-1.3c1.85,0,2.45,1.18,2.45,3.14v3.5h-.91V23.44c0-1.22-.22-2.46-1.67-2.46a2.56,2.56,0,0,0-2.18,1.52v4.3h-.9V20.32Z" transform="translate(-1.85 -1.86)"/><path class="cls-1" d="M181,23.79a2.38,2.38,0,0,0,2.31,2.4,2.09,2.09,0,0,0,2.06-1.12l.64.41A3,3,0,0,1,183.33,27a3.17,3.17,0,0,1-3.28-3.44,3.22,3.22,0,0,1,3.17-3.36,3,3,0,0,1,2.88,3,4.59,4.59,0,0,1,0,.6Zm2.27-2.86A2.24,2.24,0,0,0,181,23h4.23A2.12,2.12,0,0,0,183.22,20.93Z" transform="translate(-1.85 -1.86)"/></g><g id="skole_navn" data-name="skole navn"><path class="cls-1" d="M41.17,9.91H37.36l-.69,1.91H35.1l3.65-9.29H40l3.54,9.29H41.86ZM37.82,8.66h2.9l-1.44-4h0Z" transform="translate(-1.85 -1.86)"/><path class="cls-1" d="M53.58,11.82V8.45a3.54,3.54,0,0,0-.29-1.75,1.2,1.2,0,0,0-1.09-.52,2.34,2.34,0,0,0-1.73,1,9.93,9.93,0,0,1,.07,1.13v3.49H49.17V8.45a3.38,3.38,0,0,0-.33-1.81,1.07,1.07,0,0,0-1-.46,2.45,2.45,0,0,0-1.73,1.09v4.55H44.77V5.1h1.3l0,1a2.73,2.73,0,0,1,2.09-1.13A2.13,2.13,0,0,1,50,5.86a1.4,1.4,0,0,1,.16.29,2.79,2.79,0,0,1,2.31-1.21,2.16,2.16,0,0,1,1.83.81A4.24,4.24,0,0,1,55,8.33v3.49Z" transform="translate(-1.85 -1.86)"/><path class="cls-1" d="M61,11.82l0-.68A2.4,2.4,0,0,1,59,12a2.12,2.12,0,0,1-2.39-2.07c0-1.69,1.52-2.22,3-2.22a6.62,6.62,0,0,1,1.31.15v-.2A1.36,1.36,0,0,0,59.4,6.09a4.73,4.73,0,0,0-2.12.59l-.38-1.1a6.84,6.84,0,0,1,2.71-.64c1.92,0,2.68,1.07,2.68,2.81v4.07Zm-.11-3a5.74,5.74,0,0,0-1.14-.12C59,8.67,58,8.89,58,9.84c0,.76.59,1.05,1.25,1.05a2.66,2.66,0,0,0,1.7-.74Z" transform="translate(-1.85 -1.86)"/><path class="cls-1" d="M65.71,11.82H64.35v-10h1.36Z" transform="translate(-1.85 -1.86)"/><path class="cls-1" d="M67.84,3.88V2.46h1.37V3.88Zm0,7.94V5.1h1.37v6.72Z" transform="translate(-1.85 -1.86)"/><path class="cls-1" d="M74.21,10.83a2.06,2.06,0,0,0,2-1.07l1,.63a3.2,3.2,0,0,1-3,1.59,3.24,3.24,0,0,1-3.34-3.5,3.39,3.39,0,0,1,3.34-3.54,3,3,0,0,1,3.12,3.12,4.38,4.38,0,0,1-.06.75h-5A2,2,0,0,0,74.21,10.83Zm0-4.74a2,2,0,0,0-1.91,1.67h3.58A1.69,1.69,0,0,0,74.17,6.09Z" transform="translate(-1.85 -1.86)"/><path class="cls-1" d="M85.28,3.63c-.9,0-1.55.43-1.55,1.2s.86,1.06,1.82,1.39c1.31.45,2.87,1,2.87,2.87,0,2.07-1.86,2.89-3.32,2.89a4.56,4.56,0,0,1-3.42-1.43l1-1a3.1,3.1,0,0,0,2.43,1.12c.9,0,1.79-.44,1.79-1.5s-1-1.32-2-1.67c-1.26-.45-2.59-1.08-2.59-2.61a2.55,2.55,0,0,1,2.84-2.57,4.59,4.59,0,0,1,2.93,1l-.86,1A3.08,3.08,0,0,0,85.28,3.63Z" transform="translate(-1.85 -1.86)"/><path class="cls-1" d="M91.63,8.32h0L94.24,5.1h1.65L93.51,7.87l2.58,4H94.44L92.61,8.93l-1,1.14v1.75H90.26v-10h1.37Z" transform="translate(-1.85 -1.86)"/><path class="cls-1" d="M98.56,6.15a2.07,2.07,0,0,1,1.7-1.21A2.71,2.71,0,0,1,101,5l-.28,1.38a1.24,1.24,0,0,0-.64-.15,1.78,1.78,0,0,0-1.53,1v4.51H97.22V5.1h1.3Z" transform="translate(-1.85 -1.86)"/><path class="cls-1" d="M106,11.82l0-.68a2.39,2.39,0,0,1-2,.84,2.11,2.11,0,0,1-2.39-2.07c0-1.69,1.51-2.22,3-2.22a6.7,6.7,0,0,1,1.32.15v-.2a1.36,1.36,0,0,0-1.53-1.55,4.69,4.69,0,0,0-2.11.59l-.39-1.1a6.88,6.88,0,0,1,2.71-.64c1.93,0,2.68,1.07,2.68,2.81v4.07Zm-.1-3a5.83,5.83,0,0,0-1.15-.12c-.78,0-1.8.22-1.8,1.17,0,.76.58,1.05,1.25,1.05a2.68,2.68,0,0,0,1.7-.74Z" transform="translate(-1.85 -1.86)"/><path class="cls-1" d="M118.17,11.82V8.45a3.54,3.54,0,0,0-.3-1.75,1.19,1.19,0,0,0-1.09-.52,2.3,2.3,0,0,0-1.72,1,9.93,9.93,0,0,1,.07,1.13v3.49h-1.37V8.45a3.48,3.48,0,0,0-.33-1.81,1.1,1.1,0,0,0-1-.46,2.45,2.45,0,0,0-1.72,1.09v4.55h-1.37V5.1h1.3l0,1a2.72,2.72,0,0,1,2.08-1.13,2.13,2.13,0,0,1,1.85.92,2.09,2.09,0,0,1,.16.29,2.77,2.77,0,0,1,2.31-1.21,2.17,2.17,0,0,1,1.83.81,4.24,4.24,0,0,1,.62,2.58v3.49Z" transform="translate(-1.85 -1.86)"/><path class="cls-1" d="M130.31,5.1l-2.65,6.72h-1.17L123.94,5.1h1.51l1.69,5h0l1.67-5Z" transform="translate(-1.85 -1.86)"/><path class="cls-1" d="M134.2,11.82a3.29,3.29,0,0,1-3.29-3.45,3.33,3.33,0,0,1,3.32-3.43,3,3,0,0,1,2.12.92l0-.76h1.3v6.36a3.77,3.77,0,0,1-.37,1.77,3.2,3.2,0,0,1-3,1.56,5.38,5.38,0,0,1-3-.9l.53-1.15a4.52,4.52,0,0,0,2.45.82,1.82,1.82,0,0,0,2.05-1.9V10.8A2.6,2.6,0,0,1,134.2,11.82Zm2.11-4.67a2.31,2.31,0,0,0-1.86-1A2.09,2.09,0,0,0,132.3,8.4a2.11,2.11,0,0,0,4,1Z" transform="translate(-1.85 -1.86)"/><path class="cls-1" d="M143.11,6.58a2.14,2.14,0,0,0-1.33-.52.82.82,0,0,0-.91.8c0,.49.61.73,1.23,1,.88.34,2,.82,2,2,0,1.5-1.2,2.12-2.47,2.12a3.1,3.1,0,0,1-2.42-1.07l.9-.79a2,2,0,0,0,1.5.73c.59,0,1.12-.29,1.12-.91s-.61-.76-1.27-1c-.88-.35-1.88-.75-1.88-1.95a2,2,0,0,1,2.23-2,3.2,3.2,0,0,1,2.13.77Z" transform="translate(-1.85 -1.86)"/><path class="cls-1" d="M145.63,11.82V10.17h1.56v1.65Z" transform="translate(-1.85 -1.86)"/></g><g id="våpen"><polygon class="cls-2" points="25.46 0.67 0.01 0.67 12.73 16.21 25.46 0.67"/><path class="cls-2" d="M14.58,33.62a39.52,39.52,0,0,0,7.14-6.82H7.44A39.52,39.52,0,0,0,14.58,33.62Z" transform="translate(-1.85 -1.86)"/><path class="cls-2" d="M3.23,18.08a20.94,20.94,0,0,0,.94,3A24,24,0,0,0,7.44,26.8h0l7.14-8.72Z" transform="translate(-1.85 -1.86)"/><path class="cls-3" d="M27.31,2.53,14.58,18.08h0L7.44,26.8H21.72A23.36,23.36,0,0,0,25,21.12a20.94,20.94,0,0,0,.94-3C27.49,11.51,27.31,2.53,27.31,2.53Z" transform="translate(-1.85 -1.86)"/><path class="cls-3" d="M14.58,18.08,1.86,2.53s-.19,9,1.37,15.55Z" transform="translate(-1.85 -1.86)"/></g></svg>